<?xml version="1.0" encoding="UTF-8" standalone="no"?>
<svg
   xmlns:dc="http://purl.org/dc/elements/1.1/"
   xmlns:cc="http://creativecommons.org/ns#"
   xmlns:rdf="http://www.w3.org/1999/02/22-rdf-syntax-ns#"
   xmlns:svg="http://www.w3.org/2000/svg"
   xmlns="http://www.w3.org/2000/svg"
   xmlns:sodipodi="http://sodipodi.sourceforge.net/DTD/sodipodi-0.dtd"
   xmlns:inkscape="http://www.inkscape.org/namespaces/inkscape"
   xml:space="preserve"
   height="96"
   width="400"
   version="1.1"
   id="svg2"
   inkscape:version="0.48.1 r9760"
   sodipodi:docname="brmlab.svg"><metadata
   id="metadata78"><rdf:RDF><cc:Work
       rdf:about=""><dc:format>image/svg+xml</dc:format><dc:type
         rdf:resource="http://purl.org/dc/dcmitype/StillImage" /></cc:Work></rdf:RDF></metadata><sodipodi:namedview
   pagecolor="#ffffff"
   bordercolor="#666666"
   borderopacity="1"
   objecttolerance="10"
   gridtolerance="10"
   guidetolerance="10"
   inkscape:pageopacity="0"
   inkscape:pageshadow="2"
   inkscape:window-width="1366"
   inkscape:window-height="710"
   id="namedview76"
   showgrid="false"
   inkscape:zoom="2"
   inkscape:cx="208.2391"
   inkscape:cy="36.746036"
   inkscape:window-x="0"
   inkscape:window-y="26"
   inkscape:window-maximized="1"
   inkscape:current-layer="svg2"
   inkscape:snap-bbox="true"
   inkscape:snap-global="true" />
<defs
   id="defs4"><inkscape:perspective
   sodipodi:type="inkscape:persp3d"
   inkscape:vp_x="0 : 48 : 1"
   inkscape:vp_y="0 : 1000 : 0"
   inkscape:vp_z="400 : 48 : 1"
   inkscape:persp3d-origin="200 : 32 : 1"
   id="perspective80" />



































</defs>
<path
   style="fill:#000000;fill-opacity:1;fill-rule:nonzero;stroke:none"
   d="m 138.5235,47.9225 -1.32969,2.44625 -1.39531,0.8825 -16.04734,0.01234 -15.92641,0.01891 0,-13.72375 0,-13.72375 15.98688,6e-4 15.98687,6e-4 2.85375,3.669062 1.4925,10.038438 -0.42484,5.675938 -1.19641,4.702812 m 5.475,-22.88625 -4.23406,-5.845625 -3.96594,-1.229375 -15.98687,-0.0013 -15.98688,-0.0012 0,-6.403125 0,-6.403125 -2.9375,0 -2.9375,0 0,26.00625 0,26.00625 1.47125,-0.0018 1.47125,-0.0018 14.05141,-0.01813 20.85484,-0.01812 3.96594,-1.228125 4.23406,-5.844375 1.49891,-5.7425 0.52109,-6.76625 -0.52109,-6.765625 -1.49891,-5.741875"
   id="path10"
   inkscape:connector-curvature="0"
   sodipodi:nodetypes="cccccccccccccccccccccccccccccccccc" /><path
   style="fill:#000000;fill-opacity:1;fill-rule:nonzero;stroke:none"
   d="m 389.4235,47.9225 -1.32938,2.44625 -1.39312,0.8825 -16.04906,0.01234 -15.92719,0.01891 0,-13.72375 0,-13.72375 15.98812,6e-4 15.98813,6e-4 2.85266,3.669062 1.49234,10.038438 -0.425,5.675938 -1.1975,4.702812 m 5.47625,-22.88625 -4.23438,-5.845625 -3.96437,-1.229375 -15.98813,-0.0013 -15.98812,-0.0012 0,-6.403125 0,-6.403125 -2.93688,0 -2.93687,0 0,26.00625 0,26.00625 1.47063,-0.0018 1.47062,-0.0018 14.05219,-0.01813 20.85656,-0.01812 3.96438,-1.228125 4.23437,-5.844375 1.49891,-5.7425 0.52109,-6.76625 -0.52109,-6.765625 -1.49891,-5.741875"
   id="path12"
   inkscape:connector-curvature="0"
   sodipodi:nodetypes="cccccccccccccccccccccccccccccccccc" /><path
   style="fill:#000000;fill-opacity:1;fill-rule:nonzero;stroke:none"
   d="m 301.7235,23.835 -1.39438,0.8825 -1.33062,2.44625 -1.19707,4.702268 -0.42418,5.676482 1.4925,10.038438 2.85375,3.669062 16.04797,0.01234 15.92703,0.01891 0,-13.723125 0,-13.723125 -15.9875,0 z m 37.84875,33.32875 -1.47,-0.0019 -1.47,-0.0019 -14.05219,-0.0175 -20.85656,-0.0175 -3.96547,-1.22875 -4.23453,-5.845 -1.49871,-5.742394 -0.52129,-6.766356 0.52156,-6.765625 1.49844,-5.741875 4.23432,-5.845707 3.96568,-1.229293 17.45625,0 17.45625,0 1.4599,0.0029 1.45989,0.0029 0.008,19.599 0.008,19.599 -2e-5,0 z"
   id="path14"
   sodipodi:nodetypes="cccccccccccccccccccccccccccccccccc"
   inkscape:connector-curvature="0" /><path
   style="fill:#000000;fill-opacity:1;fill-rule:nonzero;stroke:none"
   d="m 277.2735,57.16 2.937,0 2.937,0 0,-26.00375 0,-26.00375 -2.937,0 -2.937,0 0,26.00375 z"
   id="path16"
   inkscape:connector-curvature="0"
   sodipodi:nodetypes="ccccccccc" /><path
   style="fill:#000000;fill-opacity:1;fill-rule:nonzero;stroke:none"
   d="m 191.061,23.06 -2.13953,-2.18875 -3.65172,-1.9675 -5.7425,-1.498438 -6.76625,-0.521562 -6.76609,0.521562 -5.74141,1.498438 -5.845,4.233906 -1.22875,3.964844 -0.009,18.728906 -0.009,11.319844 2.93688,0.0025 2.93687,0.0025 0.009,-11.321875 0.009,-18.731875 3.66859,-2.852656 10.03891,-1.492344 5.67641,0.423906 4.70234,1.197344 1.99391,0.998125 1.12859,1.069375 2.39938,-1.693125 z"
   id="path18"
   inkscape:connector-curvature="0"
   sodipodi:nodetypes="ccccccccccccccccccccccc" /><path
   style="fill:#000000;fill-opacity:1;fill-rule:nonzero;stroke:none"
   d="m 234.6235,27.11 3.68172,-2.853125 10.05203,-1.491875 5.67688,0.42375 4.70187,1.19625 2.44625,1.331094 0.8825,1.393906 0.009,18.429063 0.009,11.624687 2.93623,-0.0019 2.93622,-0.0019 -0.009,-11.623731 -0.009,-18.426269 -1.22813,-3.965 -5.84437,-4.235 -5.7425,-1.497812 -6.76625,-0.520938 -6.76672,0.520937 -5.74203,1.497813 -2.38234,1.122656 -1.79266,1.239844 -1.78531,-1.238906 -2.36469,-1.123594 -5.74109,-1.497812 -6.76766,-0.520938 -6.765,0.520937 -5.74125,1.497813 -5.84609,4.235 -1.22891,3.965 -0.008,18.728437 -0.008,11.320313 2.93688,0.0025 2.93687,0.0025 0.009,-11.321875 0.009,-18.731875 3.66891,-2.853125 10.03734,-1.491875 5.6775,0.42375 4.7025,1.19625 2.44578,1.331094 0.88297,1.393906 0.009,18.430938 0.009,11.626562 2.93688,-0.0025 2.93687,-0.0025 0.005,-11.624531 0.005,-18.427969"
   id="path20"
   inkscape:connector-curvature="0"
   sodipodi:nodetypes="ccccccccccccccccccccccccccccccccccccccccccccccc" /><path
   style="fill:#000000;fill-opacity:1;fill-rule:nonzero;stroke:none"
   d="M 44.7185,8.4475 37.418302,9.1857153 30.61473,11.302363 24.454723,14.650447 19.085219,19.082969 14.653156,24.452932 11.305473,30.61334 9.1891081,37.417195 8.451,44.7175 l 0.1754785,3.602349 0.5210059,3.528315 0.8583886,3.434624 1.187627,3.321275 1.508721,3.188266 1.821669,3.035601 2.126475,2.863276 2.423135,2.671294 2.671653,2.423135 2.863445,2.126474 3.035622,1.82167 3.188186,1.508721 3.321136,1.187627 3.43447,0.858389 3.528191,0.521006 3.602297,0.175478 7.300305,-0.738159 6.803855,-2.116489 6.160408,-3.347838 5.369963,-4.432202 4.432522,-5.369585 3.348084,-6.159985 2.116648,-6.803403 L 80.9885,44.7175 80.24994,37.416836 78.133131,30.612813 74.785026,24.452383 70.352581,19.0825 64.982751,14.650117 58.822491,11.302188 52.018756,9.1856641 44.7185,8.4475 m 0,77.91 L 40.58286,86.15603 36.531977,85.557851 32.588495,84.572309 28.775063,83.20875 25.114325,81.476519 21.62893,79.384961 18.341522,76.943423 15.27475,74.16125 12.492577,71.09417 10.051039,67.806719 7.9594814,64.321455 6.22725,60.660938 4.8636903,56.847725 3.8781483,52.904375 3.2799697,48.853447 3.0785,44.7175 3.926,36.335835 6.356,28.524258 10.19975,21.451489 15.2885,15.28625 21.4535,10.197261 28.526,6.3532423 36.33725,3.9229151 44.7185,3.075 l 8.381663,0.8475049 7.811559,2.4300342 7.072723,3.8438429 6.165149,5.088931 5.08884,6.165298 3.843797,7.072944 2.430017,7.81187 0.847502,8.382075 -0.847502,8.38125 -2.430017,7.81125 -3.843797,7.0725 -5.08884,6.165 -6.165149,5.08875 -7.072722,3.84375 -7.81156,2.43 -8.381663,0.8475"
   id="path22"
   inkscape:connector-curvature="0"
   sodipodi:nodetypes="cccccccccccccccccccccccccccccccccccccccccccccccccccccccccccccccccccccccccccccccccc" /><path
   style="fill:#000000;fill-opacity:1;fill-rule:nonzero;stroke:none"
   d="m 29.611,69.135 1.719426,0.980046 1.77575,0.854934 1.826403,0.728108 1.87139,0.599568 1.910705,0.469314 1.944353,0.337346 1.972332,0.203665 1.994641,0.06827 1.994695,-0.06827 1.972473,-0.203665 1.944553,-0.337346 1.910935,-0.469314 1.871619,-0.599568 1.826604,-0.728108 1.775891,-0.854934 1.71948,-0.980046 -0.467104,-1.024509 -0.290122,-1.068909 -0.114165,-1.091848 0.06077,-1.093328 0.234673,-1.073347 0.407553,-1.031907 0.57941,-0.969006 0.750239,-0.884646 0.508906,-0.461636 0.545469,-0.405122 0.578281,-0.347055 0.607344,-0.287437 0.632656,-0.226265 0.654219,-0.16354 0.672031,-0.09926 0.686094,-0.03343 0.440229,0.0141 0.436685,0.04196 0.431821,0.06932 0.42564,0.09618 0.41814,0.122552 0.409321,0.148423 0.399185,0.173794 0.387729,0.198668 2.193774,-4.350789 1.398921,-4.572082 0.614058,-4.691233 -0.160816,-4.70824 L 72.157489,36.793303 70.476898,32.357481 68.051405,28.211082 64.891,24.45625 63.433417,23.095347 61.895414,21.845742 60.282236,20.71022 58.599125,19.691563 56.851327,18.792554 55.044086,18.015977 53.182645,17.364614 51.27225,16.84125 l -0.394321,1.054387 -0.550796,0.960711 -0.691362,0.852575 -0.816021,0.729983 -0.924771,0.592932 -1.017612,0.441423 -1.094546,0.275457 -1.155571,0.09503 -1.155571,-0.09503 -1.094546,-0.275456 -1.017613,-0.441424 -0.92477,-0.592932 -0.81602,-0.729983 -0.691362,-0.852576 -0.550797,-0.96071 -0.394321,-1.054387 -1.910447,0.523418 -1.861565,0.651504 -1.807395,0.776778 -1.747937,0.899238 -1.683191,1.018886 -1.613156,1.135723 -1.537835,1.249746 -1.457224,1.360957 -3.161233,3.754778 -2.42613,4.146257 -1.681082,4.435623 -0.926086,4.622873 -0.161145,4.708011 0.613743,4.691032 1.398576,4.571941 2.193357,4.350735 0.388193,-0.198667 0.39962,-0.173794 0.409697,-0.148423 0.418428,-0.122553 0.425811,-0.09619 0.431845,-0.06932 0.436533,-0.04196 0.439873,-0.0141 0.686455,0.03343 0.672217,0.09926 0.654287,0.163541 0.632666,0.226264 0.607354,0.287436 0.578349,0.347056 0.545654,0.405122 0.509268,0.461636 0.750649,0.884646 0.579703,0.969006 0.407729,1.031907 0.234732,1.073347 0.06071,1.093328 -0.114342,1.091848 -0.290415,1.068909 -0.467514,1.024509 m 15.01375,6.50125 -2.304641,-0.08458 -2.276707,-0.252199 -2.241228,-0.417522 -2.198205,-0.580545 -2.147639,-0.741267 -2.089529,-0.89969 L 29.342928,71.604622 27.39225,70.395 27.262563,70.30797 27.132875,70.22094 27.003187,70.13391 26.8735,70.04688 26.743812,69.95985 26.614125,69.87282 26.484437,69.78579 26.35475,69.69876 l 0.09938,-0.120156 0.09937,-0.120156 0.09938,-0.120157 0.09937,-0.120156 0.09937,-0.120156 0.09938,-0.120157 0.09937,-0.120156 0.09938,-0.120156 0.496572,-0.731245 0.341944,-0.787466 0.18831,-0.822564 0.03567,-0.836538 -0.115967,-0.829389 -0.266611,-0.801118 -0.41626,-0.751724 -0.564912,-0.681206 -0.342234,-0.31043 -0.366887,-0.27246 -0.389007,-0.233438 -0.408591,-0.193359 -0.425642,-0.152226 -0.440158,-0.11004 -0.452142,-0.0668 -0.461589,-0.0225 -0.402339,0.0175 -0.397388,0.05195 -0.39018,0.08559 -0.380718,0.118399 -0.368999,0.150392 -0.355024,0.181562 -0.338794,0.211914 -0.320308,0.241445 -0.120313,0.09922 -0.120312,0.09922 -0.120313,0.09922 -0.120312,0.09922 -0.120313,0.09922 -0.120312,0.09922 -0.120312,0.09922 -0.120309,0.0992 -0.08703,-0.129375 -0.08703,-0.129375 -0.08703,-0.129375 -0.08703,-0.129375 -0.08703,-0.129375 -0.08703,-0.129375 -0.08703,-0.129375 -0.08703,-0.129375 -2.624424,-4.761265 -1.715107,-5.036977 -0.817451,-5.192778 0.06855,-5.228667 0.942881,-5.144644 1.805556,-4.940708 2.656572,-4.61686 3.495928,-4.173101 1.68792,-1.569053 1.787236,-1.430947 1.87958,-1.28915 1.964952,-1.143662 2.043349,-0.994482 2.114776,-0.841612 2.179228,-0.685049 2.236709,-0.524795 0.153125,-0.02984 0.153125,-0.02984 0.153125,-0.02984 0.153125,-0.02984 0.153125,-0.02984 0.153125,-0.02984 0.153125,-0.02984 0.15312,-0.02987 0.015,0.155156 0.015,0.155156 0.015,0.155157 0.015,0.155156 0.015,0.155156 0.015,0.155156 0.015,0.155157 0.015,0.155156 0.165662,0.867683 0.314944,0.798235 0.448508,0.714534 0.566355,0.616579 0.668484,0.504372 0.754895,0.377913 0.825588,0.2372 0.880564,0.08223 0.880566,-0.08223 0.825606,-0.2372 0.754941,-0.377912 0.668574,-0.504373 0.566504,-0.616579 0.44873,-0.714534 0.315255,-0.798235 0.166074,-0.867683 0.015,-0.155156 0.015,-0.155157 0.015,-0.155156 0.015,-0.155156 0.015,-0.155156 0.015,-0.155157 0.015,-0.155156 0.015,-0.155156 0.152969,0.02984 0.152968,0.02984 0.152969,0.02984 0.152969,0.02984 0.152969,0.02984 0.152968,0.02984 0.152969,0.02984 0.152969,0.02984 2.23594,0.52479 2.178767,0.685015 2.114578,0.841518 2.043371,0.994302 1.965149,1.143364 1.879909,1.288706 1.787655,1.430328 1.688381,1.568227 3.495566,4.173567 2.656387,4.617312 1.805488,4.94113 0.942871,5.145022 0.06853,5.228987 -0.817519,5.193025 L 72.92578,57.191149 70.301,61.9525 70.21397,62.081875 70.12694,62.21125 70.03991,62.340625 69.95288,62.47 69.86585,62.599375 69.77882,62.72875 69.69179,62.858125 69.60476,62.9875 69.484604,62.88813 69.364448,62.78875 69.244291,62.68937 69.124125,62.59 69.003969,62.490625 68.883813,62.39125 68.763656,62.291875 68.6435,62.1925 l -0.321082,-0.241392 -0.339289,-0.211772 -0.355315,-0.181363 -0.369158,-0.150161 -0.380817,-0.118169 -0.390296,-0.08538 -0.39759,-0.05181 -0.402703,-0.01745 -0.461538,0.02245 -0.452017,0.06665 -0.440004,0.109839 -0.425503,0.151997 -0.408511,0.19313 -0.389029,0.233237 -0.367055,0.27232 -0.342593,0.310376 -0.564502,0.68126 -0.415967,0.751865 -0.266436,0.801318 -0.115908,0.829619 0.03561,0.836768 0.188135,0.822764 0.341651,0.787607 0.496162,0.731299 0.09922,0.120156 0.09922,0.120156 0.09922,0.120157 0.09922,0.120156 0.09922,0.120156 0.09922,0.120157 0.09922,0.120156 0.09922,0.120156 -0.129375,0.08703 -0.129375,0.08703 -0.129375,0.08703 -0.129375,0.08703 -0.129375,0.08703 -0.129375,0.08703 -0.129375,0.08703 -0.12938,0.08704 -1.95073,1.209636 -2.024016,1.055813 -2.089729,0.89969 -2.147869,0.741267 -2.198435,0.580544 -2.241428,0.417522 -2.276848,0.2522 -2.304695,0.08458"
   id="path24"
   inkscape:connector-curvature="0"
   sodipodi:nodetypes="cccccccccccccccccccccccccccccccccccccccccccccccccccccccccccccccccccccccccccccccccccccccccccccccccccccccccccccccccccccccccccccccccccccccccccccccccccccccccccccccccccccccccccccccccccccccccccccccccccccccccccccccccccccccccccccccccccccccccccccccccccccccccccccccccccccccccccccccccccccccccccccccccccccccccccccccccccccccccccccccccc" /><path
   style="fill:#000000;fill-opacity:1;fill-rule:nonzero;stroke:none"
   d="m 29.361,29.9225 -0.428464,0.04333 -0.399329,0.124248 -0.361565,0.196553 -0.315173,0.260244 -0.260154,0.315322 -0.196506,0.361788 -0.124231,0.399638 -0.04333,0.428877 0.04333,0.428464 0.124231,0.399329 0.196506,0.361565 0.260154,0.315173 0.315173,0.260154 0.361565,0.196506 0.399329,0.124231 0.428464,0.04333 0.428106,-0.04333 0.39916,-0.124231 0.361543,-0.196506 0.315253,-0.260154 0.260293,-0.315174 0.19666,-0.361564 0.124356,-0.399329 0.04338,-0.428464 -0.04338,-0.428877 L 31.322016,31.223984 31.125355,30.862197 30.865062,30.546875 30.549808,30.286631 30.188265,30.090078 29.789105,29.96583 29.361,29.9225 m 0,6.52 -0.884263,-0.08938 -0.824057,-0.256268 -0.74607,-0.405358 -0.650298,-0.536653 -0.536743,-0.650149 -0.405405,-0.745847 -0.256284,-0.823748 -0.08938,-0.88385 0.08938,-0.883904 0.256284,-0.823889 0.405405,-0.746047 0.536743,-0.650379 0.650298,-0.536882 0.746069,-0.405559 0.824058,-0.256409 0.884263,-0.08943 0.88385,0.08943 0.823747,0.256409 0.745848,0.405559 0.650149,0.536882 0.536653,0.650378 0.405359,0.746048 0.256267,0.823889 0.08938,0.883904 -0.08938,0.88385 -0.256268,0.823748 -0.405358,0.745847 -0.536653,0.650149 -0.650149,0.536653 -0.745847,0.405359 L 30.24485,36.35312 29.361,36.4425"
   id="path26"
   inkscape:connector-curvature="0"
   sodipodi:nodetypes="cccccccccccccccccccccccccccccccccccccccccccccccccccccccccccccccccc" /><path
   style="fill:#000000;fill-opacity:1;fill-rule:nonzero;stroke:none"
   d="m 25.501,45.1975 -0.428464,0.04333 -0.399329,0.124248 -0.361565,0.196553 -0.315173,0.260244 -0.260154,0.315322 -0.196506,0.361788 -0.124231,0.399638 -0.04333,0.428877 0.04333,0.428823 0.124231,0.399497 0.196506,0.361587 0.260154,0.315093 0.315173,0.260014 0.361565,0.196353 0.399329,0.124107 0.428464,0.04328 0.428518,-0.04328 0.39947,-0.124107 0.361765,-0.196353 0.315403,-0.260014 0.260383,-0.315093 0.196707,-0.361587 0.124373,-0.399497 0.04338,-0.428823 -0.04338,-0.428877 L 27.463246,46.498984 27.266539,46.137197 27.006156,45.821875 26.690753,45.561631 26.328988,45.365078 25.929518,45.24083 25.501,45.1975 m 0,6.52125 -0.884209,-0.08938 -0.823916,-0.256268 -0.745869,-0.405358 -0.650069,-0.536653 -0.536514,-0.650149 -0.405205,-0.745847 -0.256142,-0.823748 -0.08933,-0.88385 0.08933,-0.883904 0.256143,-0.823889 0.405205,-0.746047 0.536513,-0.650379 0.650068,-0.536883 0.74587,-0.405559 0.823916,-0.256408 0.884209,-0.08943 0.884263,0.08943 0.824057,0.256409 0.74607,0.405559 0.650298,0.536882 0.536743,0.650378 0.405405,0.746048 0.256284,0.823889 0.08938,0.883904 -0.08938,0.88385 -0.256284,0.823747 -0.405405,0.745848 -0.536743,0.650149 -0.650298,0.536653 -0.746069,0.405359 -0.824058,0.256267 -0.884263,0.08938"
   id="path28"
   inkscape:connector-curvature="0"
   sodipodi:nodetypes="cccccccccccccccccccccccccccccccccccccccccccccccccccccccccccccccccc" /><path
   style="fill:#000000;fill-opacity:1;fill-rule:nonzero;stroke:none"
   d="m 63.7485,45.1975 -0.428159,0.04333 -0.399302,0.124248 -0.361743,0.196553 -0.315483,0.260244 -0.260523,0.315322 -0.19686,0.361788 -0.124497,0.399638 -0.04343,0.428877 0.04343,0.428823 0.124497,0.399497 0.19686,0.361587 0.260523,0.315093 0.315483,0.260014 0.361743,0.196353 0.399302,0.124107 0.428159,0.04328 0.428518,-0.04328 0.39947,-0.124107 0.361765,-0.196353 0.315403,-0.260014 0.260383,-0.315093 0.196707,-0.361587 0.124373,-0.399497 0.04338,-0.428823 -0.04338,-0.428877 L 65.710746,46.498984 65.514039,46.137197 65.253656,45.821875 64.938253,45.561631 64.576488,45.365078 64.177018,45.24083 63.7485,45.1975 m 0,6.52125 L 62.864596,51.62937 62.040707,51.373102 61.29466,50.967747 60.644281,50.431094 60.107398,49.780945 59.701839,49.035098 59.445431,48.21135 59.356,47.3275 l 0.08943,-0.883904 0.256409,-0.823889 0.405559,-0.746047 0.536882,-0.650379 0.650378,-0.536882 0.746048,-0.405559 0.823889,-0.256409 0.883904,-0.08943 0.884263,0.08943 0.824057,0.256409 0.74607,0.405559 0.650298,0.536882 0.536743,0.650378 0.405405,0.746048 0.256284,0.823889 0.08938,0.883904 -0.08938,0.88385 -0.256284,0.823747 -0.405405,0.745848 -0.536743,0.650149 -0.650298,0.536653 -0.746069,0.405359 -0.824058,0.256267 -0.884263,0.08938"
   id="path30"
   inkscape:connector-curvature="0"
   sodipodi:nodetypes="cccccccccccccccccccccccccccccccccccccccccccccccccccccccccccccccccc" /><path
   style="fill:#000000;fill-opacity:1;fill-rule:nonzero;stroke:none"
   d="m 36.84225,60.385 -0.428411,0.04333 -0.399187,0.124248 -0.361364,0.196553 -0.314944,0.260244 -0.259924,0.315322 -0.196307,0.361788 -0.124089,0.399638 -0.04327,0.428877 0.04327,0.428464 0.124089,0.399329 0.196306,0.361565 0.259925,0.315173 0.314944,0.260154 0.361365,0.196506 0.399186,0.124231 0.428411,0.04333 0.428518,-0.04333 0.39947,-0.124231 0.361765,-0.196506 0.315403,-0.260154 0.260383,-0.315173 0.196707,-0.361565 0.124373,-0.399329 L 38.972249,62.515 38.928869,62.086123 38.804496,61.686484 38.607789,61.324697 38.347406,61.009375 38.032003,60.749131 37.670238,60.552578 37.270768,60.42833 36.84225,60.385 m 0,6.52125 -0.883796,-0.08938 -0.823606,-0.256268 -0.745647,-0.405358 -0.64992,-0.536653 -0.536424,-0.650146 -0.405158,-0.745847 -0.256125,-0.823748 -0.08932,-0.88385 0.08932,-0.883904 0.256125,-0.823889 0.405159,-0.746047 0.536423,-0.650379 0.649919,-0.536882 0.745647,-0.405559 0.823607,-0.256409 0.883796,-0.08943 0.884263,0.08943 0.824057,0.256409 0.746069,0.405559 0.650298,0.536882 0.536743,0.650379 0.405406,0.746047 0.256284,0.823889 0.08938,0.883904 -0.08938,0.88385 -0.256284,0.823748 -0.405406,0.745847 -0.536743,0.650149 -0.650298,0.536653 -0.746069,0.405359 -0.824057,0.256267 -0.884263,0.08938"
   id="path32"
   inkscape:connector-curvature="0"
   sodipodi:nodetypes="cccccccccccccccccccccccccccccccccccccccccccccccccccccccccccccccccc" /><path
   style="fill:#000000;fill-opacity:1;fill-rule:nonzero;stroke:none"
   d="m 59.886,29.9225 -0.428518,0.04333 -0.39947,0.124248 -0.361765,0.196553 -0.315403,0.260244 -0.260383,0.315322 -0.196707,0.361787 -0.124373,0.399639 -0.04338,0.428877 0.04338,0.428464 0.124373,0.399329 0.196707,0.361565 0.260383,0.315173 0.315403,0.260154 0.361765,0.196506 0.39947,0.124231 0.428518,0.04333 0.428411,-0.04333 0.399187,-0.124231 0.361364,-0.196506 0.314944,-0.260154 0.259924,-0.315173 0.196306,-0.361565 0.12409,-0.399329 0.04327,-0.428464 -0.04327,-0.428877 L 61.846137,31.223984 61.649831,30.862197 61.389906,30.546875 61.074962,30.286631 60.713597,30.090078 60.314411,29.96583 59.886,29.9225 m 0,6.52 L 59.001737,36.35312 58.17768,36.096852 57.431611,35.691494 56.781313,35.154841 56.24457,34.504695 55.839164,33.758848 55.58288,32.9351 55.4935,32.05125 l 0.08938,-0.883904 0.256284,-0.823889 0.405406,-0.746047 0.536743,-0.650379 0.650298,-0.536882 0.746069,-0.405559 0.824057,-0.256409 0.884263,-0.08943 0.883796,0.08943 0.823606,0.256409 0.745647,0.405559 0.64992,0.536882 0.536423,0.650378 0.405159,0.746048 0.256125,0.823889 0.08932,0.883904 -0.08932,0.88385 -0.256125,0.823748 -0.405159,0.745847 -0.536423,0.650149 -0.649919,0.536653 -0.745647,0.405359 -0.823607,0.256267 -0.883796,0.08938"
   id="path34"
   inkscape:connector-curvature="0"
   sodipodi:nodetypes="cccccccccccccccccccccccccccccccccccccccccccccccccccccccccccccccccc" /><path
   style="fill:#000000;fill-opacity:1;fill-rule:nonzero;stroke:none"
   d="m 52.411,60.385 -0.428518,0.04338 -0.39947,0.124373 -0.361765,0.196706 -0.315403,0.260384 -0.260383,0.315403 -0.196707,0.361765 -0.124373,0.39947 -0.04338,0.428518 0.04338,0.428464 0.124373,0.399329 0.196706,0.361565 0.260384,0.315173 0.315403,0.260154 0.361765,0.196506 0.39947,0.124231 0.428518,0.04333 0.428105,-0.04333 0.39916,-0.124231 0.361543,-0.196506 0.315254,-0.260154 0.260293,-0.315173 0.19666,-0.361565 0.124356,-0.399329 0.04338,-0.428464 -0.04338,-0.428518 -0.124356,-0.39947 -0.19666,-0.361765 L 53.915062,61.009843 53.599808,60.74946 53.238265,60.552753 52.839105,60.42838 52.411,60.385 m 0,6.52125 L 51.526737,66.81687 50.70268,66.560602 49.956611,66.155244 49.306313,65.618591 48.76957,64.968445 48.364164,64.222598 48.10788,63.39885 48.0185,62.515 l 0.08938,-0.883904 0.256284,-0.823889 0.405406,-0.746047 0.536743,-0.650379 0.650298,-0.536882 0.746069,-0.405559 0.824057,-0.256409 0.884263,-0.08943 0.88385,0.08943 0.823747,0.256409 0.745848,0.405559 0.650149,0.536882 0.536653,0.650378 0.405359,0.746048 0.256267,0.823889 0.08938,0.883904 -0.08938,0.88385 -0.256268,0.823748 -0.405358,0.745847 -0.536653,0.650149 -0.650149,0.536653 -0.745847,0.405359 -0.823748,0.256267 -0.88385,0.08938"
   id="path36"
   inkscape:connector-curvature="0"
   sodipodi:nodetypes="cccccccccccccccccccccccccccccccccccccccccccccccccccccccccccccccccc" /><path
   style="fill:#000000;fill-opacity:1;fill-rule:nonzero;stroke:none"
   d="m 44.636,29.9225 -0.428518,0.04333 -0.39947,0.124248 -0.361765,0.196553 -0.315403,0.260244 -0.260383,0.315322 -0.196707,0.361787 -0.124373,0.399639 -0.04338,0.428877 0.04338,0.428464 0.124373,0.399329 0.196707,0.361565 0.260383,0.315173 0.315403,0.260154 0.361765,0.196506 0.39947,0.124231 0.428518,0.04333 0.428106,-0.04333 0.39916,-0.124231 0.361543,-0.196506 0.315253,-0.260154 0.260293,-0.315174 0.19666,-0.361564 0.124356,-0.399329 0.04338,-0.428464 -0.04338,-0.428877 -0.124355,-0.399639 -0.19666,-0.361787 L 46.140063,30.546875 45.824809,30.286631 45.463266,30.090078 45.064106,29.96583 44.636,29.9225 m 0,6.52 L 43.751737,36.35312 42.92768,36.096852 42.181611,35.691494 41.531313,35.154841 40.99457,34.504695 40.589164,33.758848 40.33288,32.9351 40.2435,32.05125 l 0.08938,-0.883904 0.256284,-0.823889 0.405406,-0.746047 0.536743,-0.650379 0.650298,-0.536882 0.746069,-0.405559 0.824057,-0.256409 0.884263,-0.08943 0.88385,0.08943 0.823748,0.256409 0.745847,0.405559 0.650149,0.536882 0.536653,0.650378 0.405359,0.746048 0.256267,0.823889 0.08938,0.883904 -0.08938,0.88385 -0.256268,0.823748 -0.405358,0.745847 -0.536653,0.650149 -0.650149,0.536653 -0.745847,0.405359 -0.823748,0.256267 -0.88385,0.08938"
   id="path38"
   inkscape:connector-curvature="0"
   sodipodi:nodetypes="cccccccccccccccccccccccccccccccccccccccccccccccccccccccccccccccccc" /><path
   style="fill:#000000;fill-opacity:1;fill-rule:nonzero;stroke:none"
   d="m 38.596,47.2975 1.509688,0 1.509687,0 1.509687,0 1.509688,0 1.509687,0 1.509688,0 1.509687,0 1.509688,0 0,-0.634375 0,-0.634375 0,-0.634375 0,-0.634375 0,-0.634375 0,-0.634375 0,-0.634375 0,-0.634375 -1.509688,0 -1.509687,0 -1.509688,0 -1.509687,0 -1.509688,0 -1.509687,0 -1.509687,0 -1.509688,0 0,0.634375 0,0.634375 0,0.634375 0,0.634375 0,0.634375 0,0.634375 0,0.634375 z m 14.34,2.2625 -2.075156,0 -2.075157,0 -2.075156,0 -2.075156,0 -2.075156,0 -2.075157,0 -2.075156,0 -2.075156,0 0,-1.199844 0,-1.199843 0,-1.199844 0,-1.199844 0,-1.199844 0,-1.199843 0,-1.199844 0,-1.199844 2.075156,0 2.075156,0 2.075157,0 2.075156,0 2.075156,0 2.075156,0 2.075157,0 2.075156,0 0,1.199844 0,1.199844 0,1.199843 0,1.199844 0,1.199844 0,1.199844 0,1.199843 z"
   id="path40"
   inkscape:connector-curvature="0"
   sodipodi:nodetypes="cccccccccccccccccccccccccccccccccccccccccccccccccccccccccccccccccc" /><path
   style="fill:#000000;fill-opacity:1;fill-rule:nonzero;stroke:none"
   d="m 98.0985,67.81 1.363125,0 1.363125,0 0,3.065625 0,3.065625 1.91406,-1.562031 2.32469,-0.520469 1.30812,0.1725 1.16563,0.5175 0.95219,0.819531 0.67281,1.082969 0.39875,1.50875 0.1325,2.10125 0,3.925 0,3.925 -1.36313,0 -1.36312,0 0,-4.261875 0,-4.261875 -0.18547,-1.365625 -0.55578,-1.069375 -0.85984,-0.690781 -1.09516,-0.230469 -0.87266,0.11625 -0.82109,0.34875 -0.83547,0.6175 -0.91703,0.925 0,4.93625 0,4.93625 -1.363125,0 -1.363125,0 0,-9.050625 z"
   id="path42"
   inkscape:connector-curvature="0"
   sodipodi:nodetypes="ccccccccccccccccccccccccccccccccc" /><path
   style="fill:#000000;fill-opacity:1;fill-rule:nonzero;stroke:none"
   d="m 122.2485,83.185 0,-2.044375 0,-2.044375 -0.91375,0.351875 L 120.421,79.8 l -1.18891,0.555781 -0.78109,0.560469 -0.43312,0.630625 -0.14438,0.769375 0.13672,0.775156 0.40953,0.618594 0.62797,0.403906 0.78828,0.134844 1.255,-0.266094 1.1575,-0.797656 m 2.6825,-5.55875 0,2.929375 0,2.929375 0.11938,0.528125 0.35937,0.175625 0.63313,-0.183594 0.91062,-0.550156 0,0.83125 0,0.83125 -0.83719,0.503906 -0.65531,0.313594 -0.57437,0.162031 -0.60063,0.05422 -1.39328,-0.344219 -0.67422,-1.033281 -1.79422,1.010312 -1.90578,0.337188 -1.31859,-0.2375 -1.07766,-0.71375 -0.72,-1.072969 -0.24,-1.315781 0.23438,-1.234844 0.70312,-1.095156 1.1325,-0.919375 1.52625,-0.705625 1.745,-0.6 1.745,-0.6 0,-0.366875 0,-0.366875 -0.62156,-1.864688 -1.86469,-0.621562 -2.20297,0.576719 -2.14203,1.730781 0,-1.49125 0,-1.49125 1.93656,-1.404531 2.63219,-0.467969 2.01188,0.291875 1.56937,0.876875 0.42734,0.436719 0.38141,0.559531 0.29469,0.621875 0.16156,0.621875 0.0737,0.900937 0.025,1.457813"
   id="path44"
   inkscape:connector-curvature="0"
   sodipodi:nodetypes="cccccccccccccccccccccccccccccccccccccccccccccccccccccccccccc" /><path
   style="fill:#000000;fill-opacity:1;fill-rule:nonzero;stroke:none"
   d="m 142.461,82.685 0,1.34875 0,1.34875 -2.03047,0.572656 -1.98453,0.191094 -2.90781,-0.479687 -2.25344,-1.437813 -1.44344,-2.244062 -0.48156,-2.894688 0.46797,-2.936406 1.40453,-2.307344 2.16875,-1.494531 2.76125,-0.497969 1.00891,0.05047 0.90109,0.150781 0.94516,0.290625 1.14484,0.466875 0,1.453125 0,1.453125 -1.99312,-0.988281 -1.84313,-0.329219 -1.67766,0.323594 -1.34859,0.971406 -0.88766,1.474219 L 134.116,79 l 0.32062,1.894531 0.96188,1.460469 1.5025,0.933125 1.94875,0.310625 1.68984,-0.228125 L 142.461,82.685"
   id="path46"
   inkscape:connector-curvature="0"
   sodipodi:nodetypes="ccccccccccccccccccccccccccccccc" /><path
   style="fill:#000000;fill-opacity:1;fill-rule:nonzero;stroke:none"
   d="m 157.2985,72.1225 1.61875,0 1.61875,0 -2.94,3.37125 -2.94,3.37125 3.53938,3.520625 3.53937,3.520625 -1.82937,0 -1.82938,0 -3.45125,-3.5175 -3.45125,-3.5175 3.0625,-3.374375 z m -8.9725,-4.31875 1.36375,0 1.36375,0 0,9.050625 0,9.050625 -1.36375,0 -1.36375,0 0,-9.050625 z"
   id="path48"
   inkscape:connector-curvature="0"
   sodipodi:nodetypes="cccccccccccccccccccccc" /><path
   style="fill:#000000;fill-opacity:1;fill-rule:nonzero;stroke:none"
   d="m 167.8985,77.6225 3.46812,0 3.46813,0 -0.29609,-1.445625 -0.67766,-1.070625 -1.01828,-0.663281 -1.31922,-0.221719 -1.335,0.221719 -1.06875,0.663281 -0.77375,1.070625 -0.4475,1.445625 m -0.0613,1.63375 0.38375,1.774688 0.9425,1.371562 1.39858,0.875792 1.75392,0.291708 2.5925,-0.419219 2.3825,-1.258281 0,1.333125 0,1.333125 -1.25297,0.719844 -1.24078,0.478906 -1.34408,0.269944 -1.55592,0.09006 -2.06,-0.236094 -1.625,-0.707656 -1.2686,-1.106936 -0.98765,-1.431814 -0.63466,-1.721318 -0.21034,-1.972432 0.44547,-2.852031 1.33703,-2.264219 2.04838,-1.477423 2.58037,-0.492577 2.46406,0.479688 1.91094,1.437812 1.22224,2.415574 0.40468,3.067994 -4.84346,9.1e-5 z"
   id="path50"
   sodipodi:nodetypes="cccccccccccccccccccccccccccccccccccccccc"
   inkscape:connector-curvature="0" /><path
   style="fill:#000000;fill-opacity:1;fill-rule:nonzero;stroke:none"
   d="m 186.161,72.1225 0,1.580625 0,1.580625 0.0756,-0.12 0.0756,-0.12 1.97688,-2.392813 1.97687,-0.797187 1.57688,0.389219 1.64437,1.168281 -0.71875,1.19875 -0.71875,1.19875 -1.37172,-1.011875 -1.26573,-0.336875 -1.23016,0.314687 -1.05484,0.942813 -0.72406,1.375469 L 186.161,78.7 l 0,3.603125 0,3.603125 -1.37,0 -1.37,0 0,-6.891875 0,-6.891875 1.37,0 z"
   id="path52"
   inkscape:connector-curvature="0"
   sodipodi:nodetypes="ccccccccccccccccccccccccc" /><path
   style="fill:#000000;fill-opacity:1;fill-rule:nonzero;stroke:none"
   d="m 197.4735,84.9225 0,-1.468125 0,-1.468125 1.16531,0.731875 1.19344,0.578125 1.11016,0.376875 0.91984,0.125625 0.79437,-0.105 0.67438,-0.315 0.46016,-0.460156 0.15359,-0.543594 -0.0994,-0.548125 -0.29813,-0.446875 -0.62688,-0.485469 -1.08812,-0.660781 -2.18141,-1.362344 -1.27109,-1.147656 -0.61312,-1.087656 -0.20438,-1.182344 0.30937,-1.441406 0.92813,-1.149844 1.41312,-0.753125 1.76938,-0.250625 2.04891,0.284688 2.10234,0.852812 0,1.34875 0,1.34875 -2.20734,-1.101406 -1.76388,-0.367344 -0.7175,0.08438 -0.56375,0.253125 -0.365,0.392344 -0.12125,0.500156 0.10984,0.469219 0.33016,0.445781 0.60875,0.479844 0.9425,0.568906 0.48687,0.276875 0.48688,0.276875 2.58469,2.0525 0.86156,2.2625 -0.33172,1.540156 -0.99453,1.237344 -1.51391,0.813906 -1.89359,0.271094 -1.16219,-0.065 -1.02531,-0.19625 -1.08234,-0.372969 -1.32891,-0.593281"
   id="path54"
   inkscape:connector-curvature="0"
   sodipodi:nodetypes="ccccccccccccccccccccccccccccccccccccccccccccccccc" /><path
   style="fill:#000000;fill-opacity:1;fill-rule:nonzero;stroke:none"
   d="m 217.2485,74.6725 -0.96437,0 -0.96438,0 0,4.24 0,4.24 1.28578,0.482656 1.34672,0.161094 1.73891,-0.333594 1.39109,-1.000156 0.91453,-1.524219 L 222.301,79.0325 222.15741,77.763125 221.726,76.65125 221.04553,75.757031 220.156,75.145 218.93241,74.790625 217.2485,74.6725 m -4.71375,16.56625 0,-9.556875 0,-9.556875 2.38625,0 2.38625,0 3.25969,0.457344 2.44781,1.371406 1.53281,2.191094 0.51094,2.917656 -0.48125,2.82375 -1.44125,2.26875 -2.18594,1.495156 -2.71281,0.498594 -1.38703,-0.146719 -1.53047,-0.438281 0,2.8375 0,2.8375 -1.3925,0 z"
   id="path56"
   inkscape:connector-curvature="0"
   sodipodi:nodetypes="cccccccccccccccccccccccccccccccccccc" /><path
   style="fill:#000000;fill-opacity:1;fill-rule:nonzero;stroke:none"
   d="m 236.7985,83.185 0,-2.044375 0,-2.044375 -0.91313,0.351875 -0.91312,0.351875 -1.18891,0.555781 -0.78109,0.560469 -0.43312,0.630625 -0.14438,0.769375 0.13672,0.775156 0.40953,0.618594 0.6275,0.403906 0.78875,0.134844 1.25531,-0.266094 1.15594,-0.797656 m 2.6825,-5.55875 0,2.929375 0,2.929375 0.11953,0.528125 0.36047,0.175625 0.63312,-0.183594 0.91063,-0.550156 0,0.83125 0,0.83125 -0.83766,0.503906 -0.65484,0.313594 -0.57484,0.162031 -0.60016,0.05422 -1.39328,-0.344219 -0.67422,-1.033281 -1.79422,1.010312 -1.90578,0.337188 -1.31859,-0.2375 -1.07766,-0.71375 -0.72,-1.072969 -0.24,-1.315781 0.23437,-1.234844 0.70313,-1.095156 1.1325,-0.919375 1.52625,-0.705625 1.74437,-0.6 1.74438,-0.6 0,-0.366875 0,-0.366875 -0.62094,-1.864688 -1.86406,-0.621562 -2.20359,0.576719 -2.14266,1.730781 0,-1.49125 0,-1.49125 1.93766,-1.404531 2.63234,-0.467969 2.01141,0.291875 1.56984,0.876875 0.42734,0.436719 0.38141,0.559531 0.29469,0.621875 0.16156,0.621875 0.0731,0.900937 0.0244,1.457813"
   id="path58"
   inkscape:connector-curvature="0"
   sodipodi:nodetypes="cccccccccccccccccccccccccccccccccccccccccccccccccccccccccccc" /><path
   style="fill:#000000;fill-opacity:1;fill-rule:nonzero;stroke:none"
   d="m 257.011,82.685 0,1.34875 0,1.34875 -2.03047,0.572656 -1.98453,0.191094 -2.90781,-0.479687 -2.25344,-1.437813 -1.44344,-2.244062 -0.48156,-2.894688 0.46797,-2.936406 1.40453,-2.307344 2.16875,-1.494531 2.76125,-0.497969 1.00938,0.05047 0.90062,0.150781 0.94516,0.290625 1.14484,0.466875 0,1.453125 0,1.453125 -1.99359,-0.988281 -1.84266,-0.329219 -1.67766,0.323594 -1.34859,0.971406 -0.88766,1.474219 L 248.666,79 l 0.32062,1.894531 0.96188,1.460469 1.5025,0.933125 1.94875,0.310625 1.68984,-0.228125 L 257.011,82.685"
   id="path60"
   inkscape:connector-curvature="0"
   sodipodi:nodetypes="ccccccccccccccccccccccccccccccc" /><path
   style="fill:#000000;fill-opacity:1;fill-rule:nonzero;stroke:none"
   d="m 264.986,77.6225 3.46812,0 3.46813,0 -0.29594,-1.445625 -0.67656,-1.070625 -1.0189,-0.66375 -1.31985,-0.22125 -1.33453,0.221719 -1.06922,0.663281 -0.7735,1.070391 -0.44775,1.445859 m -0.06,1.63375 0.38422,1.774688 0.94203,1.371562 1.39852,0.876026 1.75523,0.291474 2.59234,-0.419219 2.38141,-1.258281 0,1.333125 0,1.333125 -1.25203,0.719844 -1.24172,0.478906 -1.34321,0.269693 -1.55679,0.09031 -2.06,-0.236094 -1.625,-0.707656 -1.2686,-1.106936 -0.98765,-1.431814 -0.63456,-1.721125 -0.21044,-1.972625 0.44547,-2.852031 1.33703,-2.264219 2.04906,-1.477656 2.57969,-0.492344 2.465,0.479688 1.91,1.437812 1.22929,2.419178 0.41227,3.071134 -4.85078,-0.0033 -4.85078,-0.0033 0,1.9e-5 z"
   id="path62"
   sodipodi:nodetypes="cccccccccccccccccccccccccccccccccccccccccc"
   inkscape:connector-curvature="0" /><path
   style="fill:#000000;fill-opacity:1;fill-rule:nonzero;stroke:none"
   d="m 296.1485,74.6725 -0.96438,0 -0.96437,0 0,4.24 0,4.24 1.28578,0.482656 1.34672,0.161094 1.73891,-0.333594 1.39109,-1.000156 0.91469,-1.524219 0.30531,-1.905781 -0.14422,-1.269375 L 300.626,76.65125 299.94506,75.757031 299.056,75.145 297.83241,74.790625 296.1485,74.6725 m -4.71375,16.56625 0,-9.556875 0,-9.556875 2.38625,0 2.38625,0 3.25969,0.457344 2.44781,1.371406 1.53219,2.191094 0.51031,2.917656 -0.48062,2.82375 -1.44063,2.26875 -2.18547,1.495156 -2.71328,0.498594 -1.3875,-0.146719 -1.53,-0.438281 0,2.8375 0,2.8375 -1.3925,0 z"
   id="path64"
   inkscape:connector-curvature="0"
   sodipodi:nodetypes="cccccccccccccccccccccccccccccccccccc" /><path
   style="fill:#000000;fill-opacity:1;fill-rule:nonzero;stroke:none"
   d="m 312.636,72.1225 0,1.580625 0,1.580625 0.075,-0.12 0.075,-0.12 1.9775,-2.392813 1.9775,-0.797187 1.57641,0.389219 1.64484,1.168281 -0.71938,1.19875 -0.71937,1.19875 -1.37016,-1.011875 L 315.88725,74.46 314.65694,74.774687 313.601,75.7175 312.87756,77.092969 312.636,78.7 l 0,3.603125 0,3.603125 -1.37,0 -1.37,0 0,-6.891875 0,-6.891875 1.37,0 z"
   id="path66"
   inkscape:connector-curvature="0"
   sodipodi:nodetypes="ccccccccccccccccccccccccc" /><path
   style="fill:#000000;fill-opacity:1;fill-rule:nonzero;stroke:none"
   d="m 330.611,83.185 0,-2.044375 0,-2.044375 -0.91313,0.351875 -0.91312,0.351875 -1.19,0.555781 -0.78125,0.560469 -0.43312,0.630625 -0.14438,0.769375 0.13672,0.775156 0.40953,0.618594 0.62812,0.403906 0.78938,0.134844 1.25437,-0.266094 L 330.611,83.185 m 2.68125,-5.55875 0,2.929375 0,2.929375 0.11937,0.528125 0.35938,0.175625 0.63359,-0.183594 0.91016,-0.550156 0,0.83125 0,0.83125 -0.83703,0.503906 -0.65422,0.313594 -0.57547,0.162031 -0.60078,0.05422 -1.39266,-0.344219 -0.67359,-1.033281 -1.79516,1.010312 -1.90484,0.337188 -1.31969,-0.2375 -1.07781,-0.71375 -0.71891,-1.072969 -0.23984,-1.315781 0.23375,-1.234844 0.7025,-1.095156 1.1325,-0.919375 1.52625,-0.705625 1.745,-0.6 1.745,-0.6 0,-0.366875 0,-0.366875 -0.62156,-1.864688 -1.86469,-0.621562 -2.2025,0.576719 -2.1425,1.730781 0,-1.49125 0,-1.49125 1.93656,-1.404531 2.63219,-0.467969 2.01187,0.291875 1.56938,0.876875 0.4275,0.436719 0.3825,0.559531 0.29359,0.621875 0.16141,0.621875 0.0738,0.900937 0.025,1.457813"
   id="path68"
   inkscape:connector-curvature="0"
   sodipodi:nodetypes="cccccccccccccccccccccccccccccccccccccccccccccccccccccccccccc" /><path
   style="fill:#000000;fill-opacity:1;fill-rule:nonzero;stroke:none"
   d="m 344.911,74.485 -1.02578,0.187344 -0.86172,0.561406 -0.58391,0.824219 -0.19484,0.973281 0.19078,0.972344 0.57422,0.787656 0.86437,0.523125 1.06688,0.174375 1.05859,-0.177969 0.86641,-0.533281 0.57937,-0.799844 0.19313,-0.975156 -0.19484,-0.989375 -0.58391,-0.809375 -0.87641,-0.539375 L 344.911,74.485 m -0.64375,12.06 -1.2525,0.146094 -1.00125,0.437656 -0.65766,0.666875 -0.21984,0.831875 0.95906,1.595313 2.87719,0.532187 1.60859,-0.133125 1.19891,-0.399375 0.74812,-0.641875 0.24938,-0.863125 -0.31438,-0.87125 -0.94437,-0.695 -1.44187,-0.454531 -1.80938,-0.151719 m -4.48,-9.66375 0.40297,-1.971406 1.20828,-1.511094 1.90484,-0.960781 2.49266,-0.320469 2.83875,0 2.83875,0 0,1.06375 0,1.06375 -1.39313,0 -1.39312,0 0.68516,0.786719 0.43859,0.710781 0.23625,0.723594 0.0787,0.820156 -0.15375,1.069375 -0.46125,1.050625 -0.70156,0.918906 -0.87969,0.676094 -1.27484,0.498594 -1.89266,0.385156 -1.15766,0.379063 -0.38609,0.684687 0.14422,0.436875 0.43203,0.350625 0.81156,0.312031 1.27844,0.324219 2.08094,0.494844 1.17906,0.373906 0.69031,0.382344 0.62094,0.516406 0.74141,1.116719 0.24734,1.370781 -0.43672,1.763438 -1.30953,1.367812 -2.04016,0.875781 -2.62609,0.291719 -2.65469,-0.293594 -2.05656,-0.881406 -1.32078,-1.376719 -0.44047,-1.777031 0.86516,-2.303437 2.59484,-1.307813 -1.03328,-0.88 -0.34422,-0.8725 0.14766,-0.62875 0.44484,-0.56875 0.69375,-0.46875 0.9,-0.32625 -2.28047,-1.76375 -0.76078,-2.59625"
   id="path70"
   inkscape:connector-curvature="0"
   sodipodi:nodetypes="ccccccccccccccccccccccccccccccccccccccccccccccccccccccccccccccccccccccccccccccccccc" /><path
   style="fill:#000000;fill-opacity:1;fill-rule:nonzero;stroke:none"
   d="m 365.1235,85.91 0,-0.884375 0,-0.884375 -0.93,0.845938 -1.05375,0.634062 -1.11438,0.395938 -1.11062,0.131562 -1.25313,-0.1625 -1.15187,-0.48875 -0.96672,-0.767969 -0.69578,-0.999531 -0.42125,-1.484844 -0.14,-2.222656 0,-3.948125 0,-3.948125 1.3625,0 1.3625,0 0,3.9275 0,3.9275 0.15547,1.843281 0.46578,1.187969 0.85687,0.644688 1.32563,0.215312 1.80016,-0.476094 1.50859,-1.427656 0,-4.92125 0,-4.92125 1.36375,0 1.36375,0 0,6.891875 0,6.891875 -1.36375,0 z"
   id="path72"
   inkscape:connector-curvature="0"
   sodipodi:nodetypes="ccccccccccccccccccccccccccccccccc" /><path
   style="fill:#000000;fill-opacity:1;fill-rule:nonzero;stroke:none"
   d="m 376.561,77.6225 3.46875,0 3.46875,0 -0.29766,-1.445625 -0.67734,-1.070625 -1.01914,-0.663516 -1.31961,-0.221484 -1.33406,0.221719 -1.06969,0.663281 -0.77335,1.070391 -0.44665,1.445859 m -0.06,1.63375 0.38375,1.774688 0.9425,1.371562 1.39858,0.875792 1.75392,0.291708 2.5925,-0.419219 2.3825,-1.258281 0,1.333125 0,1.333125 -1.25313,0.719844 -1.24187,0.478906 -1.34306,0.269693 -1.55569,0.09031 -2.06063,-0.236094 -1.62562,-0.707656 -1.26748,-1.106286 -0.98752,-1.432464 -0.63456,-1.721125 -0.21044,-1.972625 0.44531,-2.852031 1.33594,-2.264219 2.0488,-1.47789 2.57995,-0.49211 2.465,0.479688 1.91,1.437812 1.22363,2.419409 0.40621,3.070904 -4.8443,-0.0033 -4.84429,-0.0033 0,1.9e-5 z"
   id="path74"
   sodipodi:nodetypes="cccccccccccccccccccccccccccccccccccccccccc"
   inkscape:connector-curvature="0" />
</svg>